<svg xmlns="http://www.w3.org/2000/svg" width="45" height="45" viewBox="0 0 45 45"><g><g><g><path fill="#f2c94c" d="M9.032 8.902a2.647 2.647 0 0 1 3.287-.317c.428.28.762.677.96 1.142.197.465.248.977.148 1.47-.1.494-.349.947-.713 1.303a2.623 2.623 0 0 1-1.333.696 2.66 2.66 0 0 1-1.504-.145 2.59 2.59 0 0 1-1.169-.937 2.503 2.503 0 0 1 .324-3.212zM.15 12.93a12.589 12.589 0 0 1 3.814-8.858A13.18 13.18 0 0 1 13.027.345l9.44-.144h.033l9.473.144a13.18 13.18 0 0 1 9.064 3.728 12.59 12.59 0 0 1 3.815 8.858l.147 9.226.001.032-.148 9.258a12.589 12.589 0 0 1-3.815 8.858 13.18 13.18 0 0 1-9.064 3.728l-9.44.144H22.5l-9.473-.145a13.179 13.179 0 0 1-9.064-3.728 12.588 12.588 0 0 1-3.815-8.858L0 22.221v-.032zm4.189 18.451a8.557 8.557 0 0 0 2.593 6.022 8.959 8.959 0 0 0 6.162 2.534l9.407.144 9.407-.144a8.96 8.96 0 0 0 6.162-2.534 8.558 8.558 0 0 0 2.593-6.022l.147-9.193-.147-9.193a8.558 8.558 0 0 0-2.593-6.022 8.96 8.96 0 0 0-6.162-2.535L22.5 4.296l-9.407.143A8.96 8.96 0 0 0 6.93 6.974a8.557 8.557 0 0 0-2.593 6.022l-.147 9.193zm9.996-17.174a11.705 11.705 0 0 1 8.166-3.31c2.285-.001 4.52.661 6.42 1.902a11.352 11.352 0 0 1 4.255 5.068 11.053 11.053 0 0 1 .658 6.524 11.215 11.215 0 0 1-3.163 5.781 11.64 11.64 0 0 1-5.916 3.09 11.805 11.805 0 0 1-6.675-.642 11.502 11.502 0 0 1-5.186-4.159 11.11 11.11 0 0 1-1.947-6.273 11.176 11.176 0 0 1 3.388-7.98zm.802 7.98a7.123 7.123 0 0 0 2.16 5.087 7.46 7.46 0 0 0 5.204 2.11c1.456 0 2.88-.421 4.091-1.212a7.236 7.236 0 0 0 2.713-3.23 7.045 7.045 0 0 0 .419-4.158 7.148 7.148 0 0 0-2.015-3.685 7.419 7.419 0 0 0-3.771-1.97 7.524 7.524 0 0 0-4.255.41 7.33 7.33 0 0 0-3.305 2.65 7.081 7.081 0 0 0-1.241 3.999z"/></g></g></g></svg>