<svg xmlns="http://www.w3.org/2000/svg" width="36" height="35" viewBox="0 0 36 35"><g><g opacity=".5"><path d="M34.44 29.939a2.516 2.516 0 0 1-3.559 3.559l-3.824-3.825a16.285 16.285 0 0 1-10.009 3.423C8.012 33.096.69 25.772.69 16.738S8.012.38 17.048.38c9.036 0 16.358 7.324 16.358 16.358 0 3.447-1.068 6.643-2.888 9.28zm-4.557-13.2c0-7.078-5.757-12.836-12.835-12.836-7.077 0-12.835 5.758-12.835 12.835 0 7.077 5.758 12.835 12.835 12.835 7.077 0 12.835-5.758 12.835-12.835z"/></g><g opacity=".5"><path d="M18.805 15.222V8.93h-3.523v6.292H8.99v3.523h6.292v6.292h3.523v-6.292h6.292v-3.523z"/></g></g></svg>