<svg xmlns="http://www.w3.org/2000/svg" width="139" height="107" viewBox="0 0 139 107">
    <g>
        <g opacity=".5">
            <g opacity=".5">
                <path fill="#c4c4c4" d="M11 5.5a5.5 5.5 0 1 1-11 0 5.5 5.5 0 0 1 11 0z"/>
            </g>
            <g opacity=".5">
                <path fill="#c4c4c4" d="M11 37.5a5.5 5.5 0 1 1-11 0 5.5 5.5 0 0 1 11 0z"/>
            </g>
            <g opacity=".5">
                <path fill="#c4c4c4" d="M11 69.5a5.5 5.5 0 1 1-11 0 5.5 5.5 0 0 1 11 0z"/>
            </g>
            <g opacity=".5">
                <path fill="#c4c4c4" d="M11 101.5a5.5 5.5 0 1 1-11 0 5.5 5.5 0 0 1 11 0z"/>
            </g>
            <g opacity=".5">
                <path fill="#c4c4c4" d="M43 5.5a5.5 5.5 0 1 1-11 0 5.5 5.5 0 0 1 11 0z"/>
            </g>
            <g opacity=".5">
                <path fill="#c4c4c4" d="M43 37.5a5.5 5.5 0 1 1-11 0 5.5 5.5 0 0 1 11 0z"/>
            </g>
            <g opacity=".5">
                <path fill="#c4c4c4" d="M43 69.5a5.5 5.5 0 1 1-11 0 5.5 5.5 0 0 1 11 0z"/>
            </g>
            <g opacity=".5">
                <path fill="#c4c4c4" d="M43 101.5a5.5 5.5 0 1 1-11 0 5.5 5.5 0 0 1 11 0z"/>
            </g>
            <g opacity=".5">
                <path fill="#c4c4c4" d="M75 5.5a5.5 5.5 0 1 1-11 0 5.5 5.5 0 0 1 11 0z"/>
            </g>
            <g opacity=".5">
                <path fill="#c4c4c4" d="M75 37.5a5.5 5.5 0 1 1-11 0 5.5 5.5 0 0 1 11 0z"/>
            </g>
            <g opacity=".5">
                <path fill="#c4c4c4" d="M75 69.5a5.5 5.5 0 1 1-11 0 5.5 5.5 0 0 1 11 0z"/>
            </g>
            <g opacity=".5">
                <path fill="#c4c4c4" d="M75 101.5a5.5 5.5 0 1 1-11 0 5.5 5.5 0 0 1 11 0z"/>
            </g>
            <g opacity=".5">
                <path fill="#c4c4c4" d="M107 5.5a5.5 5.5 0 1 1-11 0 5.5 5.5 0 0 1 11 0z"/>
            </g>
            <g opacity=".5">
                <path fill="#c4c4c4" d="M107 37.5a5.5 5.5 0 1 1-11 0 5.5 5.5 0 0 1 11 0z"/>
            </g>
            <g opacity=".5">
                <path fill="#c4c4c4" d="M107 69.5a5.5 5.5 0 1 1-11 0 5.5 5.5 0 0 1 11 0z"/>
            </g>
            <g opacity=".5">
                <path fill="#c4c4c4" d="M107 101.5a5.5 5.5 0 1 1-11 0 5.5 5.5 0 0 1 11 0z"/>
            </g>
            <g opacity=".5">
                <path fill="#c4c4c4" d="M139 5.5a5.5 5.5 0 1 1-11 0 5.5 5.5 0 0 1 11 0z"/>
            </g>
            <g opacity=".5">
                <path fill="#c4c4c4" d="M139 37.5a5.5 5.5 0 1 1-11 0 5.5 5.5 0 0 1 11 0z"/>
            </g>
            <g opacity=".5">
                <path fill="#c4c4c4" d="M139 69.5a5.5 5.5 0 1 1-11 0 5.5 5.5 0 0 1 11 0z"/>
            </g>
            <g opacity=".5">
                <path fill="#c4c4c4" d="M139 101.5a5.5 5.5 0 1 1-11 0 5.5 5.5 0 0 1 11 0z"/>
            </g>
        </g>
    </g>
</svg>