<svg xmlns="http://www.w3.org/2000/svg" width="125" height="94" viewBox="0 0 125 94"><g><g><g><path d="M7.5 2.938c0 1.622-1.578 2.937-3.525 2.937C2.028 5.875.45 4.56.45 2.937.45 1.315 2.028 0 3.975 0 5.922 0 7.5 1.315 7.5 2.938z"/></g><g><path d="M7.5 32.318c0 1.622-1.578 2.937-3.525 2.937-1.947 0-3.525-1.315-3.525-2.938 0-1.622 1.578-2.937 3.525-2.937 1.947 0 3.525 1.315 3.525 2.938z"/></g><g><path d="M7.5 61.688c0 1.622-1.578 2.937-3.525 2.937-1.947 0-3.525-1.315-3.525-2.938 0-1.622 1.578-2.937 3.525-2.937 1.947 0 3.525 1.315 3.525 2.938z"/></g><g><path d="M7.5 91.067c0 1.623-1.578 2.938-3.525 2.938-1.947 0-3.525-1.315-3.525-2.938 0-1.622 1.578-2.937 3.525-2.937 1.947 0 3.525 1.315 3.525 2.938z"/></g><g><path d="M36.875 2.938a2.937 2.937 0 1 1-5.875 0 2.937 2.937 0 0 1 5.875 0z"/></g><g><path d="M36.875 32.318a2.937 2.937 0 1 1-5.875 0 2.937 2.937 0 0 1 5.875 0z"/></g><g><path d="M36.875 61.688a2.937 2.937 0 1 1-5.875 0 2.937 2.937 0 0 1 5.875 0z"/></g><g><path d="M36.875 91.067a2.937 2.937 0 1 1-5.875 0 2.937 2.937 0 0 1 5.875 0z"/></g><g><path d="M66.245 2.938a2.937 2.937 0 1 1-5.875 0 2.937 2.937 0 0 1 5.875 0z"/></g><g><path d="M66.245 32.318a2.937 2.937 0 1 1-5.875 0 2.937 2.937 0 0 1 5.875 0z"/></g><g><path d="M66.245 61.688a2.937 2.937 0 1 1-5.875 0 2.937 2.937 0 0 1 5.875 0z"/></g><g><path d="M66.245 91.067a2.937 2.937 0 1 1-5.875 0 2.937 2.937 0 0 1 5.875 0z"/></g><g><path d="M95.625 2.938a2.937 2.937 0 1 1-5.875 0 2.937 2.937 0 0 1 5.875 0z"/></g><g><path d="M95.625 32.318a2.937 2.937 0 1 1-5.875 0 2.937 2.937 0 0 1 5.875 0z"/></g><g><path d="M95.625 61.688a2.937 2.937 0 1 1-5.875 0 2.937 2.937 0 0 1 5.875 0z"/></g><g><path d="M95.625 91.067a2.937 2.937 0 1 1-5.875 0 2.937 2.937 0 0 1 5.875 0z"/></g><g><path d="M124.995 2.938a2.937 2.937 0 1 1-5.875 0 2.937 2.937 0 0 1 5.875 0z"/></g><g><path d="M124.995 32.318a2.937 2.937 0 1 1-5.875 0 2.937 2.937 0 0 1 5.875 0z"/></g><g><path d="M124.995 61.688a2.937 2.937 0 1 1-5.875 0 2.937 2.937 0 0 1 5.875 0z"/></g><g><path d="M124.995 91.067a2.937 2.937 0 1 1-5.875 0 2.937 2.937 0 0 1 5.875 0z"/></g></g></g></svg>