<svg xmlns="http://www.w3.org/2000/svg" width="18" height="28" viewBox="0 0 18 28">
    <g>
        <g>
            <g>
                <path fill="#f2c94c"
                      d="M17.614 24.789c.077.178.116.36.116.544a1.337 1.337 0 0 1-.79 1.218l-1.17.536c-.458.203-.915.35-1.374.442a7.025 7.025 0 0 1-3.623-.229 8.568 8.568 0 0 1-2.11-1.05 10.644 10.644 0 0 1-1.89-1.655 12.818 12.818 0 0 1-1.58-2.164 26.524 26.524 0 0 1-.936-1.51 57.577 57.577 0 0 1-.949-1.732 35.51 35.51 0 0 1-1.078-2.24 28.3 28.3 0 0 1-1.387-3.677 9.719 9.719 0 0 1-.286-1.218A12.694 12.694 0 0 1 0 8.334c0-.795.082-1.56.245-2.297a8.033 8.033 0 0 1 .752-2.055c.338-.633.767-1.2 1.286-1.699.52-.5 1.133-.906 1.842-1.22L5.28.543c.182-.075.365-.113.548-.113a1.326 1.326 0 0 1 1.217.787L9.268 6.15a1.352 1.352 0 0 1-.091 1.264 1.28 1.28 0 0 1-.586.502L6.306 8.943a1.52 1.52 0 0 0-.694.596c-.16.263-.241.546-.241.849 0 .23.044.446.133.65l3.751 8.371c.147.322.35.56.609.71a1.615 1.615 0 0 0 1.481.09l2.285-1.027a1.329 1.329 0 0 1 1.259.095c.224.14.393.331.507.575z"/>
            </g>
        </g>
    </g>
</svg>