<svg width="32" height="32" viewBox="0 0 32 32" fill="none" xmlns="http://www.w3.org/2000/svg">
<g opacity="0.5">
<path d="M16 32C24.8366 32 32 24.8366 32 16C32 7.16344 24.8366 0 16 0C7.16344 0 0 7.16344 0 16C0 24.8366 7.16344 32 16 32Z" fill="#919191"/>
<path d="M23.7875 9.20599L20.9312 23.6122C20.9312 23.6122 20.5312 24.6122 19.4312 24.131L12.8375 19.0747L10.4375 17.9185L6.39998 16.5622C6.39998 16.5622 5.78123 16.3435 5.71873 15.8622C5.65623 15.381 6.41873 15.1247 6.41873 15.1247L22.4687 8.83099C22.4687 8.82474 23.7875 8.24349 23.7875 9.20599Z" fill="white"/>
<path d="M12.325 23.4498C12.325 23.4498 12.1313 23.431 11.8938 22.6748C11.6563 21.9185 10.4375 17.9185 10.4375 17.9185L20.1313 11.7623C20.1313 11.7623 20.6938 11.4248 20.6688 11.7623C20.6688 11.7623 20.7688 11.8248 20.4688 12.0998C20.1688 12.3811 12.8563 18.956 12.8563 18.956" fill="#B3B3B3"/>
<path d="M15.3625 21.0125L12.7562 23.3938C12.7562 23.3938 12.55 23.55 12.3312 23.45L12.8312 19.0312" fill="#B3B3B3"/>
</g>
</svg>
