<svg xmlns="http://www.w3.org/2000/svg" width="32" height="32" viewBox="0 0 32 32">
    <g>
        <g>
            <g/>
            <g>
                <g>
                    <path fill="#f2c94c" d="M16 32c8.837 0 16-7.163 16-16S24.837 0 16 0 0 7.163 0 16s7.163 16 16 16z"/>
                </g>
                <g>
                    <g>
                        <path fill="#fff"
                              d="M23.792 9.205L20.936 23.61s-.4 1-1.5.519l-6.594-5.057-2.4-1.156-4.037-1.356s-.619-.219-.681-.7c-.063-.481.7-.738.7-.738l16.05-6.293c0-.007 1.318-.588 1.318.375z"/>
                    </g>
                    <g>
                        <path fill="#ffe28b"
                              d="M12.328 23.448s-.194-.02-.432-.775c-.237-.757-1.456-4.757-1.456-4.757l9.694-6.156s.562-.337.537 0c0 0 .1.063-.2.338-.3.28-7.612 6.856-7.612 6.856"/>
                    </g>
                    <g>
                        <path fill="#ffe28b" d="M15.361 21.011l-2.606 2.382s-.206.156-.425.056l.5-4.419"/>
                    </g>
                </g>
            </g>
        </g>
    </g>
</svg>