<svg width="32" height="32" viewBox="0 0 32 32" fill="none" xmlns="http://www.w3.org/2000/svg">
<g opacity="0.5">
<circle cx="16" cy="16" r="16" fill="white"/>
<path fill-rule="evenodd" clip-rule="evenodd" d="M11.5285 8.12725C11.2182 7.38425 10.983 7.356 10.513 7.337C10.353 7.32775 10.1748 7.3185 9.977 7.3185C9.3655 7.3185 8.72625 7.49725 8.3405 7.89225C7.8705 8.372 6.70425 9.49125 6.70425 11.7863C6.70425 14.0815 8.378 16.3013 8.60375 16.612C8.839 16.922 11.867 21.7005 16.5688 23.648C20.2455 25.1718 21.3365 25.0305 22.1733 24.852C23.3958 24.5887 24.9285 23.6852 25.3143 22.5945C25.6998 21.5033 25.6998 20.572 25.5868 20.3745C25.474 20.177 25.1635 20.0645 24.6935 19.829C24.2235 19.5938 21.9383 18.465 21.5058 18.3145C21.0825 18.1548 20.6782 18.2113 20.3587 18.6628C19.9072 19.293 19.4655 19.9328 19.108 20.3183C18.826 20.6193 18.365 20.657 17.9795 20.497C17.4622 20.281 16.0142 19.7725 14.2275 18.183C12.845 16.951 11.9047 15.418 11.6322 14.957C11.3595 14.4867 11.604 14.2137 11.8202 13.96C12.0555 13.6683 12.281 13.4615 12.516 13.1885C12.7512 12.9158 12.8827 12.7747 13.0332 12.4548C13.1932 12.1445 13.0802 11.8245 12.9675 11.5892C12.8545 11.3535 11.9142 9.05825 11.5285 8.12725ZM15.9952 0C7.17475 0 0 7.17675 0 15.9998C0 19.4988 1.1285 22.744 3.04675 25.3778L1.053 31.3225L7.203 29.357C9.7325 31.0312 12.751 32 16.0047 32C24.8252 32 32 24.8228 32 16.0002C32 7.17725 24.8252 0.0005 16.0047 0.0005H15.9955V0H15.9952Z" fill="#919191"/>
</g>
</svg>
