<svg xmlns="http://www.w3.org/2000/svg" width="32" height="32" viewBox="0 0 32 32"><g><g><g/><g><g/><g><path fill="#fff" d="M32 16c0 8.837-7.163 16-16 16S0 24.837 0 16 7.163 0 16 0s16 7.163 16 16z"/></g><g><path fill="#f2c94c" d="M12.967 11.59c.113.235.226.555.066.865-.15.32-.282.46-.517.734-.235.273-.46.48-.696.771-.216.254-.46.527-.188.997.273.461 1.213 1.994 2.595 3.226 1.787 1.59 3.235 2.098 3.752 2.314.386.16.847.122 1.129-.179.357-.385.8-1.025 1.25-1.655.32-.452.724-.508 1.148-.348.432.15 2.717 1.279 3.187 1.514.47.235.781.348.894.545.113.198.113 1.13-.273 2.22-.386 1.091-1.918 1.995-3.14 2.258-.838.178-1.929.32-5.605-1.204-4.702-1.948-7.73-6.726-7.965-7.036-.226-.31-1.9-2.53-1.9-4.826 0-2.295 1.166-3.414 1.636-3.894.386-.395 1.025-.573 1.637-.573.198 0 .376.009.536.018.47.019.705.047 1.015.79.386.931 1.326 3.226 1.44 3.462zM15.995 0C7.175 0 0 7.177 0 16c0 3.499 1.129 6.744 3.047 9.378l-1.994 5.945 6.15-1.966A15.874 15.874 0 0 0 16.005 32C24.825 32 32 24.823 32 16S24.825 0 16.005 0h-.01z"/></g></g></g></g></svg>