<svg width="1749" height="796" viewBox="0 0 1749 796" fill="none" xmlns="http://www.w3.org/2000/svg">
<circle opacity="0.1" cx="1351" cy="398" r="321.5" stroke="#CFCFCF" stroke-width="153"/>
<g opacity="0.5">
<circle cx="12.9019" cy="102.902" r="12.9019" fill="#EAEAEA"/>
<circle cx="12.9019" cy="177.967" r="12.9019" fill="#EAEAEA"/>
<circle cx="12.9019" cy="253.033" r="12.9019" fill="#EAEAEA"/>
<circle cx="12.9019" cy="328.098" r="12.9019" fill="#EAEAEA"/>
<circle cx="87.9673" cy="102.902" r="12.9019" fill="#EAEAEA"/>
<circle cx="87.9673" cy="177.967" r="12.9019" fill="#EAEAEA"/>
<circle cx="87.9673" cy="253.033" r="12.9019" fill="#EAEAEA"/>
<circle cx="87.9673" cy="328.098" r="12.9019" fill="#EAEAEA"/>
<circle cx="163.033" cy="102.902" r="12.9019" fill="#EAEAEA"/>
<circle cx="163.033" cy="177.967" r="12.9019" fill="#EAEAEA"/>
<circle cx="163.033" cy="253.033" r="12.9019" fill="#EAEAEA"/>
<circle cx="163.033" cy="328.098" r="12.9019" fill="#EAEAEA"/>
<circle cx="238.098" cy="102.902" r="12.9019" fill="#EAEAEA"/>
<circle cx="238.098" cy="177.967" r="12.9019" fill="#EAEAEA"/>
<circle cx="238.098" cy="253.033" r="12.9019" fill="#EAEAEA"/>
<circle cx="238.098" cy="328.098" r="12.9019" fill="#EAEAEA"/>
<circle cx="313.164" cy="102.902" r="12.9019" fill="#EAEAEA"/>
<circle cx="313.164" cy="177.967" r="12.9019" fill="#EAEAEA"/>
<circle cx="313.164" cy="253.033" r="12.9019" fill="#EAEAEA"/>
<circle cx="313.164" cy="328.098" r="12.9019" fill="#EAEAEA"/>
</g>
</svg>
