<svg xmlns="http://www.w3.org/2000/svg" width="1749" height="796" viewBox="0 0 1749 796"><defs><clipPath id="wgcxa"><path fill="#fff" d="M1749 398c0 219.809-178.191 398-398 398S953 617.809 953 398 1131.191 0 1351 0s398 178.191 398 398z"/></clipPath></defs><g><g opacity=".1"><path fill="none" stroke="#cfcfcf" stroke-miterlimit="20" stroke-width="306" d="M1749 398c0 219.809-178.191 398-398 398S953 617.809 953 398 1131.191 0 1351 0s398 178.191 398 398z" clip-path="url(&quot;#wgcxa&quot;)"/></g><g opacity=".5"><g opacity=".5"><path fill="#eaeaea" d="M25.804 102.902c0 7.125-5.777 12.902-12.902 12.902C5.776 115.804 0 110.027 0 102.902 0 95.776 5.776 90 12.902 90c7.125 0 12.902 5.776 12.902 12.902z"/></g><g opacity=".5"><path fill="#eaeaea" d="M25.804 177.972c0 7.125-5.777 12.902-12.902 12.902C5.776 190.874 0 185.097 0 177.972c0-7.126 5.776-12.902 12.902-12.902 7.125 0 12.902 5.776 12.902 12.902z"/></g><g opacity=".5"><path fill="#eaeaea" d="M25.804 253.032c0 7.125-5.777 12.902-12.902 12.902C5.776 265.934 0 260.157 0 253.032c0-7.126 5.776-12.902 12.902-12.902 7.125 0 12.902 5.776 12.902 12.902z"/></g><g opacity=".5"><path fill="#eaeaea" d="M25.804 328.102c0 7.125-5.777 12.902-12.902 12.902C5.776 341.004 0 335.227 0 328.102c0-7.126 5.776-12.902 12.902-12.902 7.125 0 12.902 5.776 12.902 12.902z"/></g><g opacity=".5"><path fill="#eaeaea" d="M100.874 102.902c0 7.125-5.777 12.902-12.902 12.902-7.126 0-12.902-5.777-12.902-12.902C75.07 95.776 80.846 90 87.972 90c7.125 0 12.902 5.776 12.902 12.902z"/></g><g opacity=".5"><path fill="#eaeaea" d="M100.874 177.972c0 7.125-5.777 12.902-12.902 12.902-7.126 0-12.902-5.777-12.902-12.902 0-7.126 5.776-12.902 12.902-12.902 7.125 0 12.902 5.776 12.902 12.902z"/></g><g opacity=".5"><path fill="#eaeaea" d="M100.874 253.032c0 7.125-5.777 12.902-12.902 12.902-7.126 0-12.902-5.777-12.902-12.902 0-7.126 5.776-12.902 12.902-12.902 7.125 0 12.902 5.776 12.902 12.902z"/></g><g opacity=".5"><path fill="#eaeaea" d="M100.874 328.102c0 7.125-5.777 12.902-12.902 12.902-7.126 0-12.902-5.777-12.902-12.902 0-7.126 5.776-12.902 12.902-12.902 7.125 0 12.902 5.776 12.902 12.902z"/></g><g opacity=".5"><path fill="#eaeaea" d="M175.934 102.902c0 7.125-5.777 12.902-12.902 12.902-7.126 0-12.902-5.777-12.902-12.902 0-7.126 5.776-12.902 12.902-12.902 7.125 0 12.902 5.776 12.902 12.902z"/></g><g opacity=".5"><path fill="#eaeaea" d="M175.934 177.972c0 7.125-5.777 12.902-12.902 12.902-7.126 0-12.902-5.777-12.902-12.902 0-7.126 5.776-12.902 12.902-12.902 7.125 0 12.902 5.776 12.902 12.902z"/></g><g opacity=".5"><path fill="#eaeaea" d="M175.934 253.032c0 7.125-5.777 12.902-12.902 12.902-7.126 0-12.902-5.777-12.902-12.902 0-7.126 5.776-12.902 12.902-12.902 7.125 0 12.902 5.776 12.902 12.902z"/></g><g opacity=".5"><path fill="#eaeaea" d="M175.934 328.102c0 7.125-5.777 12.902-12.902 12.902-7.126 0-12.902-5.777-12.902-12.902 0-7.126 5.776-12.902 12.902-12.902 7.125 0 12.902 5.776 12.902 12.902z"/></g><g opacity=".5"><path fill="#eaeaea" d="M251.004 102.902c0 7.125-5.777 12.902-12.902 12.902-7.126 0-12.902-5.777-12.902-12.902 0-7.126 5.776-12.902 12.902-12.902 7.125 0 12.902 5.776 12.902 12.902z"/></g><g opacity=".5"><path fill="#eaeaea" d="M251.004 177.972c0 7.125-5.777 12.902-12.902 12.902-7.126 0-12.902-5.777-12.902-12.902 0-7.126 5.776-12.902 12.902-12.902 7.125 0 12.902 5.776 12.902 12.902z"/></g><g opacity=".5"><path fill="#eaeaea" d="M251.004 253.032c0 7.125-5.777 12.902-12.902 12.902-7.126 0-12.902-5.777-12.902-12.902 0-7.126 5.776-12.902 12.902-12.902 7.125 0 12.902 5.776 12.902 12.902z"/></g><g opacity=".5"><path fill="#eaeaea" d="M251.004 328.102c0 7.125-5.777 12.902-12.902 12.902-7.126 0-12.902-5.777-12.902-12.902 0-7.126 5.776-12.902 12.902-12.902 7.125 0 12.902 5.776 12.902 12.902z"/></g><g opacity=".5"><path fill="#eaeaea" d="M326.064 102.902c0 7.125-5.777 12.902-12.902 12.902-7.126 0-12.902-5.777-12.902-12.902 0-7.126 5.776-12.902 12.902-12.902 7.125 0 12.902 5.776 12.902 12.902z"/></g><g opacity=".5"><path fill="#eaeaea" d="M326.064 177.972c0 7.125-5.777 12.902-12.902 12.902-7.126 0-12.902-5.777-12.902-12.902 0-7.126 5.776-12.902 12.902-12.902 7.125 0 12.902 5.776 12.902 12.902z"/></g><g opacity=".5"><path fill="#eaeaea" d="M326.064 253.032c0 7.125-5.777 12.902-12.902 12.902-7.126 0-12.902-5.777-12.902-12.902 0-7.126 5.776-12.902 12.902-12.902 7.125 0 12.902 5.776 12.902 12.902z"/></g><g opacity=".5"><path fill="#eaeaea" d="M326.064 328.102c0 7.125-5.777 12.902-12.902 12.902-7.126 0-12.902-5.777-12.902-12.902 0-7.126 5.776-12.902 12.902-12.902 7.125 0 12.902 5.776 12.902 12.902z"/></g></g></g></svg>