<svg xmlns="http://www.w3.org/2000/svg" width="86" height="66" viewBox="0 0 86 66"><g><g opacity=".5"><g opacity=".5"><path fill="#949494" d="M6 3a3 3 0 1 1-6 0 3 3 0 0 1 6 0z"/></g><g opacity=".5"><path fill="#949494" d="M6 23a3 3 0 1 1-6 0 3 3 0 0 1 6 0z"/></g><g opacity=".5"><path fill="#949494" d="M6 43a3 3 0 1 1-6 0 3 3 0 0 1 6 0z"/></g><g opacity=".5"><path fill="#949494" d="M6 63a3 3 0 1 1-6 0 3 3 0 0 1 6 0z"/></g><g opacity=".5"><path fill="#949494" d="M26 3a3 3 0 1 1-6 0 3 3 0 0 1 6 0z"/></g><g opacity=".5"><path fill="#949494" d="M26 23a3 3 0 1 1-6 0 3 3 0 0 1 6 0z"/></g><g opacity=".5"><path fill="#949494" d="M26 43a3 3 0 1 1-6 0 3 3 0 0 1 6 0z"/></g><g opacity=".5"><path fill="#949494" d="M26 63a3 3 0 1 1-6 0 3 3 0 0 1 6 0z"/></g><g opacity=".5"><path fill="#949494" d="M46 3a3 3 0 1 1-6 0 3 3 0 0 1 6 0z"/></g><g opacity=".5"><path fill="#949494" d="M46 23a3 3 0 1 1-6 0 3 3 0 0 1 6 0z"/></g><g opacity=".5"><path fill="#949494" d="M46 43a3 3 0 1 1-6 0 3 3 0 0 1 6 0z"/></g><g opacity=".5"><path fill="#949494" d="M46 63a3 3 0 1 1-6 0 3 3 0 0 1 6 0z"/></g><g opacity=".5"><path fill="#949494" d="M66 3a3 3 0 1 1-6 0 3 3 0 0 1 6 0z"/></g><g opacity=".5"><path fill="#949494" d="M66 23a3 3 0 1 1-6 0 3 3 0 0 1 6 0z"/></g><g opacity=".5"><path fill="#949494" d="M66 43a3 3 0 1 1-6 0 3 3 0 0 1 6 0z"/></g><g opacity=".5"><path fill="#949494" d="M66 63a3 3 0 1 1-6 0 3 3 0 0 1 6 0z"/></g><g opacity=".5"><path fill="#949494" d="M86 3a3 3 0 1 1-6 0 3 3 0 0 1 6 0z"/></g><g opacity=".5"><path fill="#949494" d="M86 23a3 3 0 1 1-6 0 3 3 0 0 1 6 0z"/></g><g opacity=".5"><path fill="#949494" d="M86 43a3 3 0 1 1-6 0 3 3 0 0 1 6 0z"/></g><g opacity=".5"><path fill="#949494" d="M86 63a3 3 0 1 1-6 0 3 3 0 0 1 6 0z"/></g></g></g></svg>